<svg xmlns="http://www.w3.org/2000/svg" width="13" height="13" viewBox="0 0 13 13"><g><g><path fill="#040404" d="M12.046 9.68a5.939 5.939 0 0 1-2.362 2.367c-1.014.561-2.073.842-3.18.842-1.106 0-2.167-.28-3.18-.842A5.955 5.955 0 0 1 .959 9.68C.394 8.665.11 7.605.11 6.506c0-1.114.287-2.181.86-3.207A5.895 5.895 0 0 1 3.362.937C4.383.387 5.432.111 6.504.111c1.073 0 2.12.276 3.142.826A5.88 5.88 0 0 1 12.033 3.3c.57 1.026.856 2.093.856 3.207 0 1.1-.281 2.159-.843 3.174zm-.932-5.847A4.919 4.919 0 0 0 9.121 1.86c-.853-.46-1.725-.69-2.617-.69-.898 0-1.77.23-2.62.69A4.952 4.952 0 0 0 1.89 3.833c-.48.856-.72 1.746-.72 2.671 0 .92.236 1.803.707 2.646a5.032 5.032 0 0 0 1.977 1.974c.847.47 1.73.706 2.65.706.92 0 1.804-.236 2.65-.706a4.996 4.996 0 0 0 1.973-1.974 5.377 5.377 0 0 0 .703-2.646c0-.925-.239-1.815-.716-2.67zM6.49 9.213c.973 0 1.865-.685 2.22-1.703l1.157.402c-.526 1.511-1.883 2.526-3.377 2.526-1.991 0-3.61-1.751-3.61-3.903s1.619-3.902 3.61-3.902c1.255 0 2.401.688 3.065 1.84l-1.062.612C8.05 4.317 7.301 3.86 6.49 3.86c-1.315 0-2.385 1.2-2.385 2.676 0 1.476 1.07 2.677 2.385 2.677z"/></g></g></svg>